<svg xmlns="http://www.w3.org/2000/svg" width="600" height="900" viewBox="0 0 600 900" role="img" aria-label="Book cover">
  <defs>
    <linearGradient id="g" x1="0" y1="0" x2="1" y2="1">
      <stop offset="0" stop-color="#7c3aed" stop-opacity="0.18" />
      <stop offset="1" stop-color="#18181b" stop-opacity="0.06" />
    </linearGradient>
  </defs>
  <rect width="600" height="900" fill="#f4f4f5" />
  <rect x="52" y="60" width="496" height="780" rx="24" fill="white" stroke="#e4e4e7" />
  <rect x="52" y="60" width="496" height="780" rx="24" fill="url(#g)" />
  <rect x="86" y="120" width="428" height="14" rx="7" fill="#18181b" opacity="0.14" />
  <rect x="86" y="158" width="320" height="12" rx="6" fill="#18181b" opacity="0.10" />
  <g opacity="0.55">
    <path d="M158 332h284a14 14 0 0 1 14 14v252a14 14 0 0 1-14 14H158a14 14 0 0 1-14-14V346a14 14 0 0 1 14-14Z" fill="#ffffff"/>
    <path d="M178 356h244a10 10 0 0 1 10 10v212a10 10 0 0 1-10 10H178a10 10 0 0 1-10-10V366a10 10 0 0 1 10-10Z" fill="#7c3aed" opacity="0.22"/>
    <path d="M200 406h200" stroke="#18181b" stroke-opacity="0.18" stroke-width="10" stroke-linecap="round"/>
    <path d="M200 446h160" stroke="#18181b" stroke-opacity="0.12" stroke-width="10" stroke-linecap="round"/>
    <path d="M200 486h190" stroke="#18181b" stroke-opacity="0.12" stroke-width="10" stroke-linecap="round"/>
    <path d="M200 526h120" stroke="#18181b" stroke-opacity="0.12" stroke-width="10" stroke-linecap="round"/>
  </g>
  <text x="300" y="742" text-anchor="middle" font-family="Segoe UI, system-ui, sans-serif" font-size="22" fill="#71717a">
    No cover image
  </text>
</svg>
