<svg xmlns="http://www.w3.org/2000/svg" width="600" height="900" viewBox="0 0 600 900" role="img" aria-label="Design Patterns cover">
  <defs>
    <linearGradient id="bg" x1="0" y1="0" x2="1" y2="1">
      <stop offset="0" stop-color="#f59e0b"/>
      <stop offset="1" stop-color="#111827"/>
    </linearGradient>
    <filter id="shadow" x="-20%" y="-20%" width="140%" height="140%">
      <feDropShadow dx="0" dy="10" stdDeviation="18" flood-color="#000" flood-opacity="0.22"/>
    </filter>
  </defs>
  <rect width="600" height="900" fill="#f4f4f5"/>
  <rect x="52" y="60" width="496" height="780" rx="26" fill="url(#bg)" filter="url(#shadow)"/>
  <g opacity="0.22">
    <rect x="110" y="160" width="120" height="120" rx="18" fill="#fff"/>
    <rect x="250" y="160" width="120" height="120" rx="18" fill="#fff"/>
    <rect x="390" y="160" width="100" height="120" rx="18" fill="#fff"/>
    <path d="M170 220h80M310 220h80M420 220h50" stroke="#111827" stroke-opacity="0.25" stroke-width="10" stroke-linecap="round"/>
  </g>
  <text x="110" y="360" font-family="Segoe UI, system-ui, sans-serif" font-size="44" font-weight="800" fill="#ffffff">
    Design Patterns
  </text>
  <text x="110" y="410" font-family="Segoe UI, system-ui, sans-serif" font-size="22" fill="rgba(255,255,255,0.85)">
    Gang of Four
  </text>
  <path d="M110 480h380" stroke="rgba(255,255,255,0.35)" stroke-width="6" stroke-linecap="round"/>
  <g opacity="0.9">
    <rect x="110" y="535" width="355" height="16" rx="8" fill="rgba(255,255,255,0.22)"/>
    <rect x="110" y="570" width="300" height="14" rx="7" fill="rgba(255,255,255,0.16)"/>
    <rect x="110" y="605" width="340" height="14" rx="7" fill="rgba(255,255,255,0.16)"/>
  </g>
  <text x="110" y="780" font-family="Segoe UI, system-ui, sans-serif" font-size="18" fill="rgba(255,255,255,0.75)">
    Bookstore edition
  </text>
</svg>
