<svg xmlns="http://www.w3.org/2000/svg" width="600" height="900" viewBox="0 0 600 900" role="img" aria-label="Spring in Action cover">
  <defs>
    <linearGradient id="bg" x1="0" y1="0" x2="1" y2="1">
      <stop offset="0" stop-color="#22c55e"/>
      <stop offset="1" stop-color="#0f172a"/>
    </linearGradient>
    <filter id="shadow" x="-20%" y="-20%" width="140%" height="140%">
      <feDropShadow dx="0" dy="10" stdDeviation="18" flood-color="#000" flood-opacity="0.22"/>
    </filter>
  </defs>
  <rect width="600" height="900" fill="#f4f4f5"/>
  <rect x="52" y="60" width="496" height="780" rx="26" fill="url(#bg)" filter="url(#shadow)"/>
  <g opacity="0.22">
    <path d="M420 170c-52 18-87 62-87 112 0 70 63 112 133 97 38-8 66-30 78-61-31 24-80 24-115-7-34-30-34-82-9-117z" fill="#fff"/>
  </g>
  <text x="110" y="230" font-family="Segoe UI, system-ui, sans-serif" font-size="44" font-weight="800" fill="#ffffff">
    Spring in Action
  </text>
  <text x="110" y="280" font-family="Segoe UI, system-ui, sans-serif" font-size="22" fill="rgba(255,255,255,0.85)">
    Craig Walls
  </text>
  <path d="M110 350h380" stroke="rgba(255,255,255,0.35)" stroke-width="6" stroke-linecap="round"/>
  <g opacity="0.9">
    <rect x="110" y="405" width="380" height="16" rx="8" fill="rgba(255,255,255,0.22)"/>
    <rect x="110" y="440" width="320" height="14" rx="7" fill="rgba(255,255,255,0.16)"/>
    <rect x="110" y="475" width="350" height="14" rx="7" fill="rgba(255,255,255,0.16)"/>
    <rect x="110" y="510" width="240" height="14" rx="7" fill="rgba(255,255,255,0.16)"/>
  </g>
  <text x="110" y="780" font-family="Segoe UI, system-ui, sans-serif" font-size="18" fill="rgba(255,255,255,0.75)">
    Bookstore edition
  </text>
</svg>
